<?xml version="1.0" encoding="UTF-8" standalone="no"?>
<svg
   xmlns:dc="http://purl.org/dc/elements/1.1/"
   xmlns:cc="http://creativecommons.org/ns#"
   xmlns:rdf="http://www.w3.org/1999/02/22-rdf-syntax-ns#"
   xmlns:svg="http://www.w3.org/2000/svg"
   xmlns="http://www.w3.org/2000/svg"
   xmlns:sodipodi="http://sodipodi.sourceforge.net/DTD/sodipodi-0.dtd"
   xmlns:inkscape="http://www.inkscape.org/namespaces/inkscape"
   width="210mm"
   height="210mm"
   viewBox="0 0 210 210"
   version="1.1"
   id="svg1074"
   inkscape:version="1.0.1 (3bc2e813f5, 2020-09-07, custom)"
   sodipodi:docname="PineTalkLight.svg"
   inkscape:export-filename="/home/julius/workspace/drawings/PineTalkLight.png"
   inkscape:export-xdpi="123.8"
   inkscape:export-ydpi="123.8">
  <defs
     id="defs1068">
    <rect
       x="144.07018"
       y="198.87988"
       width="58.01263"
       height="25.965527"
       id="rect1024" />
    <rect
       x="144.07018"
       y="198.87988"
       width="58.01263"
       height="25.965527"
       id="rect1085" />
  </defs>
  <sodipodi:namedview
     id="base"
     pagecolor="#ffffff"
     bordercolor="#666666"
     borderopacity="1.0"
     inkscape:pageopacity="0.0"
     inkscape:pageshadow="2"
     inkscape:zoom="0.7"
     inkscape:cx="307.03558"
     inkscape:cy="439.61398"
     inkscape:document-units="mm"
     inkscape:current-layer="layer1"
     inkscape:document-rotation="0"
     showgrid="false"
     inkscape:window-width="1920"
     inkscape:window-height="1034"
     inkscape:window-x="0"
     inkscape:window-y="22"
     inkscape:window-maximized="0" />
  <metadata
     id="metadata1071">
    <rdf:RDF>
      <cc:Work
         rdf:about="">
        <dc:format>image/svg+xml</dc:format>
        <dc:type
           rdf:resource="http://purl.org/dc/dcmitype/StillImage" />
        <dc:title></dc:title>
      </cc:Work>
    </rdf:RDF>
  </metadata>
  <g
     inkscape:label="Layer 1"
     inkscape:groupmode="layer"
     id="layer1">
    <rect
       style="fill:#ffffff;fill-opacity:1;stroke:none;stroke-width:0.2;stroke-linejoin:round;stroke-miterlimit:4;stroke-dasharray:none;stroke-opacity:1"
       id="rect964"
       width="203.70027"
       height="203.70027"
       x="2.9125574"
       y="2.7984166" />
    <path
       style="fill:#5d719d;fill-opacity:1;stroke:#f4f4f4;stroke-width:0.685551;stroke-miterlimit:4;stroke-dasharray:none;stroke-opacity:1"
       d="m 153.56117,90.861818 11.24852,0.498204 6.28356,-0.681631 6.04084,-3.480797 6.8016,-5.877007 -0.11107,-0.414771 -11.42626,-1.680824 -5.56282,-0.665964 -3.70545,3.178003 z"
       id="path966"
       sodipodi:nodetypes="cccccccccc" />
    <path
       id="path968"
       style="fill:#2f7dc0;fill-opacity:1;fill-rule:evenodd;stroke:#f1ffff;stroke-width:1.3;stroke-miterlimit:4;stroke-dasharray:none;stroke-opacity:1"
       d="m 157.84593,188.99074 a 28.524095,5.3917624 0 0 0 -6.44722,0.1481 h -21.84497 v 4.96593 a 28.524095,5.3917624 0 0 0 -0.0382,0.27775 28.524095,5.3917624 0 0 0 0.0382,0.27896 v 0.0865 h 0.0272 a 28.524095,5.3917624 0 0 0 28.4576,5.02642 28.524095,5.3917624 0 0 0 28.52425,-5.39179 28.524095,5.3917624 0 0 0 -0.074,-0.38761 v -4.85608 h -21.80793 a 28.524095,5.3917624 0 0 0 -6.64224,-0.1481 28.524095,5.3917624 0 0 0 -0.19253,0 z" />
    <ellipse
       style="fill:#2969b1;fill-opacity:1;fill-rule:evenodd;stroke:#f1ffff;stroke-width:1.3;stroke-miterlimit:4;stroke-dasharray:none;stroke-opacity:1"
       id="ellipse970"
       cx="158.02779"
       cy="188.7863"
       rx="28.524096"
       ry="5.3917623" />
    <path
       id="path972"
       style="fill:#3c5b8a;fill-opacity:1;stroke:#f1ffff;stroke-width:1.3;stroke-miterlimit:4;stroke-dasharray:none;stroke-opacity:1"
       d="m 168.1211,120.00779 a 8.2062837,8.2062837 0 0 0 -9.29376,6.95153 8.2062837,8.2062837 0 0 0 -0.01,0.0817 l -0.003,-3.4e-4 -7.61808,52.8687 a 8.2062837,8.2062837 0 0 0 -0.12707,0.67638 8.2062837,8.2062837 0 0 0 -0.0688,0.68347 l -0.005,0.0368 0.003,3.3e-4 a 8.2062837,8.2062837 0 0 0 7.02308,8.57295 8.2062837,8.2062837 0 0 0 9.15777,-6.2414 l 0.0143,0.002 0.0275,-0.19134 a 8.2062837,8.2062837 0 0 0 0.0946,-0.52226 8.2062837,8.2062837 0 0 0 0.0569,-0.52764 l 7.52472,-52.22112 a 8.2062837,8.2062837 0 0 0 0.17629,-0.87801 8.2062837,8.2062837 0 0 0 -6.95175,-9.2924 z" />
    <path
       id="path974"
       style="fill:#475677;fill-opacity:1;stroke:#f1ffff;stroke-width:1.3;stroke-miterlimit:4;stroke-dasharray:none;stroke-opacity:1"
       d="m 173.19379,94.109549 a 10.502586,10.502586 0 0 0 -12.11654,8.550251 10.502586,10.502586 0 0 0 -0.12183,0.95861 l -0.0939,-0.0191 -5.62405,32.29686 a 10.502586,10.502586 0 0 0 -0.18918,0.87166 10.502586,10.502586 0 0 0 8.54474,12.14817 10.502586,10.502586 0 0 0 11.99288,-7.81122 l 0.005,6.3e-4 0.01,-0.0499 a 10.502586,10.502586 0 0 0 0.14356,-0.68422 10.502586,10.502586 0 0 0 0.096,-0.69118 l 5.56077,-31.93324 a 10.502586,10.502586 0 0 0 0.37276,-1.48627 10.502586,10.502586 0 0 0 -8.54599,-12.148408 10.502586,10.502586 0 0 0 -0.0315,-0.0072 z" />
    <rect
       style="fill:#3d689a;fill-opacity:1;fill-rule:evenodd;stroke:#f1ffff;stroke-width:0.924747;stroke-opacity:1"
       id="rect976"
       width="5.5732794"
       height="13.68741"
       x="176.37216"
       y="89.703903"
       transform="rotate(8.258205)" />
    <path
       id="path978"
       style="fill:#3d689a;fill-opacity:1;fill-rule:evenodd;stroke:#f1ffff;stroke-width:0.632006;stroke-opacity:1"
       d="m 161.55147,116.01101 -0.007,0.0432 a 1.8390811,3.812591 8.258205 0 0 -2.31572,3.51431 1.8390811,3.812591 8.258205 0 0 1.22082,4.02781 l -0.001,0.01 3.74392,0.54314 1.1023,-7.59519 z" />
    <path
       id="path980"
       style="fill:#475677;fill-opacity:1;stroke:#f1ffff;stroke-width:1.3;stroke-miterlimit:4;stroke-dasharray:none;stroke-opacity:1"
       d="m 157.68185,92.233639 c -0.73885,0.250478 -0.91554,1.760126 -0.71262,2.390691 2.42239,7.51985 10.48244,11.65193 18.0021,9.22894 7.5194,-2.42225 11.65149,-10.481493 9.22931,-18.000916 -0.20327,-0.63042 -1.01526,-1.362144 -2.14447,-1.000024 z"
       sodipodi:nodetypes="cccccc" />
    <circle
       style="fill:#3d689a;fill-opacity:1;stroke:#f1ffff;stroke-width:1.3;stroke-miterlimit:4;stroke-dasharray:none;stroke-opacity:1"
       id="circle982"
       cx="178.18701"
       cy="100.96445"
       r="6.9966912" />
    <rect
       style="fill:none;fill-opacity:1;stroke:#f1ffff;stroke-width:1.3;stroke-linejoin:round;stroke-miterlimit:4;stroke-dasharray:none;stroke-opacity:1"
       id="rect984"
       width="9.2066822"
       height="2.1843538"
       x="37.440903"
       y="199.46819"
       transform="rotate(-48.577383)" />
    <path
       style="fill:#3d689a;stroke:#f4f4f4;stroke-width:0.685551;stroke-miterlimit:4;stroke-dasharray:none;stroke-opacity:1"
       d="m 188.99063,59.202347 c -5.31172,5.666563 -11.82782,11.224749 -17.90565,15.891052 l 0.11108,0.414724 c 5.14024,0.572067 10.729,2.402783 15.88687,2.097435 0.98086,-4.304365 1.16441,-8.979933 1.68428,-13.37715 0.16363,-1.383432 0.92896,-3.787049 0.22382,-5.025942"
       id="path986" />
    <path
       style="fill:#3d689a;stroke:#f4f4f4;stroke-width:0.685551;stroke-miterlimit:4;stroke-dasharray:none;stroke-opacity:1"
       d="m 138.64974,75.390026 c 2.66217,5.091251 7.28717,9.91776 10.86817,14.294786 4.50344,-2.801737 8.30334,-7.620701 12.33461,-11.172225 l -0.11108,-0.414766 -23.09172,-2.70796"
       id="path988" />
    <path
       style="fill:#3d5c8b;fill-opacity:1;stroke:#f4f4f4;stroke-width:0.685551;stroke-miterlimit:4;stroke-dasharray:none;stroke-opacity:1"
       d="m 146.4123,72.668597 13.83074,2.152585 5.77394,0.680709 4.36303,-3.815976 10.73708,-10.176884 c -1.368,-0.616879 -3.10828,-0.63016 -4.57634,-0.849155 l -9.50034,-1.448882 c -1.55226,-0.230747 -4.04094,-1.151204 -5.55577,-0.639571 -1.62233,0.548275 -3.42476,2.943938 -4.68293,4.168618 -3.24816,3.161236 -7.80031,6.128344 -10.38941,9.928556"
       id="path990" />
    <path
       style="fill:#2968b1;fill-opacity:1;stroke:#f4f4f4;stroke-width:0.685551;stroke-miterlimit:4;stroke-dasharray:none;stroke-opacity:1"
       d="m 165.81217,55.396165 0.0554,0.207577 19.13577,2.629037 -4.38484,-16.379586 c -5.23864,3.629777 -10.16568,9.038672 -14.80643,13.543259"
       id="path992" />
    <path
       style="fill:#2968b1;fill-opacity:1;stroke:#f4f4f4;stroke-width:0.685551;stroke-miterlimit:4;stroke-dasharray:none;stroke-opacity:1"
       d="m 137.33288,55.771714 4.38487,16.379587 14.99701,-13.604625 -7.363,-1.201462 -12.01888,-1.5735"
       id="path994" />
    <path
       style="fill:#2f7dc1;fill-opacity:1;stroke:#f4f4f4;stroke-width:0.685551;stroke-miterlimit:4;stroke-dasharray:none;stroke-opacity:1"
       d="m 143.45901,53.126315 c 3.67387,1.656411 9.03052,1.603239 12.99524,2.126433 1.2715,0.167686 3.22397,0.963859 4.44836,0.370581 1.70543,-0.826151 3.4383,-3.056301 4.82271,-4.419501 2.64686,-2.605962 5.44403,-5.033394 8.10828,-7.619482 l -4.60732,-0.964218 -7.99444,-1.239203 -4.67485,-0.443507 -4.5022,4.069869 -8.59574,8.118956"
       id="path996" />
    <path
       style="fill:#2f81c3;fill-opacity:1;stroke:#f4f4f4;stroke-width:0.685551;stroke-miterlimit:4;stroke-dasharray:none;stroke-opacity:1"
       d="m 161.2295,37.50399 3.35978,0.946279 7.94344,1.048705 -4.94527,-7.642437 -6.35795,5.647453"
       id="path998" />
    <path
       style="fill:#2f81c3;fill-opacity:1;stroke:#f4f4f4;stroke-width:0.685551;stroke-miterlimit:4;stroke-dasharray:none;stroke-opacity:1"
       d="m 143.37024,39.643729 -0.39375,9.359234 c 2.72521,-1.832672 6.78703,-5.281674 8.58358,-8.164509 l -8.18974,-1.194702"
       id="path1000" />
    <path
       style="fill:#52accd;fill-opacity:1;stroke:#f4f4f4;stroke-width:0.685551;stroke-miterlimit:4;stroke-dasharray:none;stroke-opacity:1"
       d="m 153.29853,27.218614 c -1.25341,2.490875 -4.12896,6.582887 -4.10381,9.426285 l 6.9593,0.46706 5.43524,-4.452537 -2.87376,-2.228406 -5.41694,-3.212331"
       id="path1002" />
    <ellipse
       style="fill:#3d689a;fill-opacity:1;stroke:#f1ffff;stroke-width:0.20007;stroke-miterlimit:4;stroke-dasharray:none;stroke-opacity:1"
       id="ellipse1004"
       cx="161.73015"
       cy="131.66806"
       rx="1.9691234"
       ry="1.9378314" />
    <rect
       style="fill:none;fill-opacity:1;stroke:#f1ffff;stroke-width:0.226093;stroke-linejoin:round;stroke-miterlimit:4;stroke-dasharray:none;stroke-opacity:1"
       id="rect1006"
       width="2.5680239"
       height="0.61049962"
       x="203.46478"
       y="36.417553"
       transform="matrix(0.87443305,0.4851462,-0.47118768,0.88203298,0,0)" />
    <ellipse
       style="fill:#3d689a;fill-opacity:1;stroke:#f1ffff;stroke-width:0.2;stroke-miterlimit:4;stroke-dasharray:none;stroke-opacity:1"
       id="ellipse1008"
       cx="165.05295"
       cy="111.47793"
       rx="1.9691234"
       ry="1.9378314" />
    <rect
       style="fill:none;fill-opacity:1;stroke:#f1ffff;stroke-width:0.200013;stroke-linejoin:round;stroke-miterlimit:4;stroke-dasharray:none;stroke-opacity:1"
       id="rect1010"
       width="2.5680239"
       height="0.61049962"
       x="175.37196"
       y="-95.224915"
       transform="matrix(0.4617528,0.88700865,-0.87955805,0.47579158,0,0)" />
    <path
       style="fill:#52accd;fill-opacity:1;stroke:#f4f4f4;stroke-width:0.724336px;stroke-linecap:butt;stroke-linejoin:miter;stroke-opacity:1"
       d="M 10.378647,44.136156 119.3314,61.24606 120.71347,56.125145 9.8954394,16.788793 Z"
       id="path1012"
       sodipodi:nodetypes="ccccc" />
    <path
       style="fill:#475677;fill-opacity:1;stroke:#f4f4f4;stroke-width:0.717865px;stroke-linecap:butt;stroke-linejoin:miter;stroke-opacity:1"
       d="M 11.159342,6.7711887 120.78537,42.614324 123.44649,39.270186 50.116178,6.8694831 Z"
       id="path1014"
       sodipodi:nodetypes="ccccc" />
    <path
       style="fill:#5d719d;fill-opacity:1;stroke:#f4f4f4;stroke-width:0.832555px;stroke-linecap:butt;stroke-linejoin:miter;stroke-opacity:1"
       d="M 66.115843,7.583199 130.41369,26.901181 139.43617,23.14884 116.53095,7.7491411 Z"
       id="path1016"
       sodipodi:nodetypes="ccccc" />
    <text
       xml:space="preserve"
       id="text1020"
       style="font-style:normal;font-weight:normal;font-size:10.5833px;line-height:1.25;font-family:sans-serif;white-space:pre;shape-inside:url(#rect1024);fill:#3d5c8b;fill-opacity:1;stroke:none;stroke-width:0.22603;stroke-miterlimit:4;stroke-dasharray:none;stroke-opacity:1;"
       transform="matrix(2.8567791,0,0,3.3333064,-397.93273,-567.62794)"><tspan
         x="144.07031"
         y="208.24265"><tspan
           style="font-style:normal;font-variant:normal;font-weight:normal;font-stretch:normal;font-family:serif;-inkscape-font-specification:serif;fill:#3d5c8b;fill-opacity:1;stroke:none;stroke-width:0.22603;stroke-miterlimit:4;stroke-dasharray:none;stroke-opacity:1">PineTalk</tspan></tspan></text>
    <path
       style="fill:#2968b1;fill-opacity:1;stroke:#f4f4f4;stroke-width:0.730568px;stroke-linecap:butt;stroke-linejoin:miter;stroke-opacity:1"
       d="M 11.761936,81.41501 120.89191,73.833988 120.6946,67.943822 12.168562,57.715652 Z"
       id="path1022"
       sodipodi:nodetypes="ccccc" />
  </g>
</svg>
